# xmcd
#
# Track frame offsets:
#	150
#	16467
#	34343
#	46143
#	70225
#	81613
#	90851
#	102925
#	126682
#	138479
#	154446
#	163582
#	177247
#	187363
#	208710
#	240128
#	255110
#	268517
#	281578
#	296781
#	309688
#	320800
#	332872
#
# Disc length: 4648 seconds
# Revision: 0
# Processed by: cddbd v1.5.2PL0 Copyright (c) Steve Scherf et al.
# Submitted via: dBpowerAMP V12.0
#
DISCID=5f122617
DTITLE=Fred McDowell - Mississippi Delta Blues
DYEAR=1964
DGENRE=Blues
TTITLE0=Write Me a Few Lines
TTITLE1=Louise
TTITLE2=I Heard Somebody Call
TTITLE3=61 Highway
TTITLE4=Mama Don't Allow Me
TTITLE5=Kokomo Blues
TTITLE6=Fred's worried Life Blues
TTITLE7=You Gonna Be Sorry
TTITLE8=Shake 'Em on Down
TTITLE9=My Trouble Blues
TTITLE10=Black Minnie
TTITLE11=That's Alright
TTITLE12=When I Lay My Burden Down
TTITLE13=Fred's Ramblin' Blues [Bonus]
TTITLE14=Don't Look For Me On A Sunday [Bonus]
TTITLE15=Good Morning Little Schoolgirl [Bonus]
TTITLE16=Little Girl, Little Girl, How Old Are You [Bonus]
TTITLE17=Drop Down Mama [Bonus]
TTITLE18=Early This Morning [Bonus]
TTITLE19=Keep You Lamp Trimmed and Burning [Bonus]
TTITLE20=Get Right Church [Bonus]
TTITLE21=I'm Going Over The Hill [Bonus]
TTITLE22=Amazing Grace [Bonus]
EXTD=
EXTT0=
EXTT1=
EXTT2=
EXTT3=
EXTT4=
EXTT5=
EXTT6=
EXTT7=
EXTT8=
EXTT9=
EXTT10=
EXTT11=
EXTT12=
EXTT13=
EXTT14=
EXTT15=
EXTT16=
EXTT17=
EXTT18=
EXTT19=
EXTT20=
EXTT21=
EXTT22=
PLAYORDER=
